<svg width="171" height="42" viewBox="0 0 171 42" fill="none" xmlns="http://www.w3.org/2000/svg">
<path d="M22.95 5.9V12.75H8.65V20.15H19.35V26.8H8.65V41H0.1V5.9H22.95ZM31.7438 10.2C30.2438 10.2 29.0104 9.76666 28.0438 8.9C27.1104 8 26.6438 6.9 26.6438 5.6C26.6438 4.26667 27.1104 3.16666 28.0438 2.3C29.0104 1.4 30.2438 0.949997 31.7438 0.949997C33.2104 0.949997 34.4104 1.4 35.3438 2.3C36.3104 3.16666 36.7938 4.26667 36.7938 5.6C36.7938 6.9 36.3104 8 35.3438 8.9C34.4104 9.76666 33.2104 10.2 31.7438 10.2ZM35.9938 13.1V41H27.4438V13.1H35.9938ZM59.1898 12.8C62.4565 12.8 65.0565 13.8667 66.9898 16C68.9565 18.1 69.9398 21 69.9398 24.7V41H61.4398V25.85C61.4398 23.9833 60.9565 22.5333 59.9898 21.5C59.0232 20.4667 57.7232 19.95 56.0898 19.95C54.4565 19.95 53.1565 20.4667 52.1898 21.5C51.2232 22.5333 50.7398 23.9833 50.7398 25.85V41H42.1898V13.1H50.7398V16.8C51.6065 15.5667 52.7732 14.6 54.2398 13.9C55.7065 13.1667 57.3565 12.8 59.1898 12.8Z" fill="black"/>
<path d="M89.0313 5.9C92.7313 5.9 95.9646 6.63333 98.7313 8.1C101.498 9.56667 103.631 11.6333 105.131 14.3C106.665 16.9333 107.431 19.9833 107.431 23.45C107.431 26.8833 106.665 29.9333 105.131 32.6C103.631 35.2667 101.481 37.3333 98.6813 38.8C95.9146 40.2667 92.6979 41 89.0313 41H75.8813V5.9H89.0313ZM88.4813 33.6C91.7146 33.6 94.2313 32.7167 96.0313 30.95C97.8313 29.1833 98.7313 26.6833 98.7313 23.45C98.7313 20.2167 97.8313 17.7 96.0313 15.9C94.2313 14.1 91.7146 13.2 88.4813 13.2H84.4313V33.6H88.4813ZM138.509 26.6C138.509 27.4 138.459 28.2333 138.359 29.1H119.009C119.143 30.8333 119.693 32.1667 120.659 33.1C121.659 34 122.876 34.45 124.309 34.45C126.443 34.45 127.926 33.55 128.759 31.75H137.859C137.393 33.5833 136.543 35.2333 135.309 36.7C134.109 38.1667 132.593 39.3167 130.759 40.15C128.926 40.9833 126.876 41.4 124.609 41.4C121.876 41.4 119.443 40.8167 117.309 39.65C115.176 38.4833 113.509 36.8167 112.309 34.65C111.109 32.4833 110.509 29.95 110.509 27.05C110.509 24.15 111.093 21.6167 112.259 19.45C113.459 17.2833 115.126 15.6167 117.259 14.45C119.393 13.2833 121.843 12.7 124.609 12.7C127.309 12.7 129.709 13.2667 131.809 14.4C133.909 15.5333 135.543 17.15 136.709 19.25C137.909 21.35 138.509 23.8 138.509 26.6ZM129.759 24.35C129.759 22.8833 129.259 21.7167 128.259 20.85C127.259 19.9833 126.009 19.55 124.509 19.55C123.076 19.55 121.859 19.9667 120.859 20.8C119.893 21.6333 119.293 22.8167 119.059 24.35H129.759ZM155.57 33L161.62 13.1H170.72L160.82 41H150.27L140.37 13.1H149.52L155.57 33Z" fill="#45AAF2"/>
</svg>
